<?xml version="1.0" standalone="no"?>
<!DOCTYPE svg PUBLIC "-//W3C//DTD SVG 20010904//EN"
 "http://www.w3.org/TR/2001/REC-SVG-20010904/DTD/svg10.dtd">
<svg version="1.0" xmlns="http://www.w3.org/2000/svg"
 width="700.000000pt" height="700.000000pt" viewBox="0 0 700.000000 700.000000"
 preserveAspectRatio="xMidYMid meet">
<metadata>
Created by potrace 1.14, written by Peter Selinger 2001-2017
</metadata>
<g transform="translate(0.000000,700.000000) scale(0.100000,-0.100000)"
fill="#000000" stroke="none">
<path d="M2665 6982 c-26 -16 -131 -124 -245 -252 -70 -78 -161 -201 -203
-271 -97 -165 -120 -286 -120 -649 -1 -321 3 -362 45 -447 78 -157 244 -267
427 -282 14 -1 12 -40 -4 -111 -3 -14 -8 -36 -11 -50 -3 -14 -27 -122 -54
-240 -27 -118 -51 -226 -54 -240 -3 -14 -8 -36 -11 -50 -3 -14 -8 -36 -11 -50
-3 -14 -11 -52 -19 -85 -23 -95 -44 -192 -50 -228 -4 -17 -10 -50 -15 -72 -27
-124 -31 -195 -14 -267 48 -205 253 -335 461 -292 153 31 277 152 309 300 1 6
9 36 18 65 15 53 85 345 92 384 7 42 42 176 47 181 7 7 25 -56 101 -358 88
-344 113 -408 188 -474 137 -120 320 -137 479 -43 67 39 113 90 152 169 29 59
32 73 32 155 -1 81 -30 243 -64 360 -5 17 -28 107 -50 200 -23 94 -45 184 -50
200 -5 17 -12 47 -15 67 -6 35 -5 38 21 43 95 20 123 29 168 55 69 39 140 112
167 169 l22 48 112 -3 c124 -3 165 7 240 58 56 37 126 117 155 175 l24 48 2
445 c1 245 -3 471 -8 503 -22 134 -107 330 -160 368 -26 19 -53 24 -101 20
-10 0 -36 -17 -58 -37 -34 -31 -40 -42 -40 -78 0 -22 18 -92 39 -153 22 -62
38 -113 36 -113 -3 0 0 -12 5 -26 26 -66 34 -757 10 -844 -15 -56 -43 -88 -86
-96 -71 -13 -132 35 -147 116 -13 68 -62 124 -118 135 -58 11 -134 -34 -144
-86 -3 -13 -7 -90 -9 -170 -5 -154 -15 -198 -54 -232 -33 -30 -84 -29 -130 0
-53 35 -69 66 -76 146 -10 130 -79 184 -187 148 -92 -31 -108 -154 -46 -361
22 -73 82 -295 92 -340 2 -8 24 -96 49 -195 134 -536 142 -574 119 -618 -19
-37 -86 -68 -133 -61 -75 11 -89 48 -217 559 -46 187 -86 347 -88 355 -2 8
-11 44 -20 80 -9 36 -18 72 -20 80 -10 51 -69 259 -78 280 -18 36 -74 70 -117
70 -62 0 -101 -35 -127 -110 -17 -53 -132 -527 -149 -620 -29 -152 -152 -630
-168 -655 -15 -23 -69 -45 -109 -45 -40 0 -77 31 -102 85 -11 26 -11 41 0 96
8 36 16 77 19 90 2 13 10 47 16 74 16 69 20 87 105 465 8 35 75 324 100 430
26 110 27 127 29 425 1 171 -1 317 -5 326 -11 22 -79 67 -112 73 -59 10 -121
-33 -138 -96 -5 -21 -10 -90 -11 -154 l-2 -116 -42 5 c-52 5 -124 54 -156 104
-23 38 -23 40 -23 348 l1 310 27 81 c38 114 95 196 284 410 85 97 154 186 163
210 25 64 -20 145 -89 164 -50 14 -62 13 -96 -8z"/>
<path d="M4265 6991 c-11 -5 -36 -25 -55 -46 -59 -61 -46 -133 35 -197 54 -42
147 -12 180 59 21 44 16 115 -11 145 -33 36 -109 56 -149 39z"/>
<path d="M4752 3499 c-110 -21 -244 -122 -286 -216 -21 -46 -27 -50 -101 -57
-138 -14 -196 -38 -273 -115 -82 -82 -118 -186 -109 -316 l5 -72 -49 -22 c-65
-30 -133 -101 -171 -179 -61 -123 -47 -298 33 -406 l28 -39 -39 -28 c-55 -40
-127 -135 -147 -194 -26 -75 -23 -215 5 -279 23 -50 36 -67 183 -226 284 -307
969 -992 1103 -1102 65 -54 191 -123 276 -151 63 -21 181 -44 265 -52 39 -3
84 -8 100 -10 17 -2 68 -7 115 -10 47 -3 112 -8 145 -11 33 -2 102 -5 152 -6
80 -2 97 1 120 18 78 58 71 195 -11 229 -18 8 -63 16 -102 20 -38 3 -87 8
-109 10 -22 2 -76 7 -120 10 -44 3 -102 8 -130 10 -27 3 -80 7 -117 10 -37 3
-90 10 -117 15 -80 15 -241 77 -241 92 0 5 -6 8 -14 8 -17 0 -166 141 -471
446 -520 522 -737 749 -765 804 -17 31 -14 86 5 113 8 11 31 28 52 38 64 30
77 19 433 -331 269 -265 286 -276 366 -240 50 21 84 69 84 117 0 44 -52 107
-324 387 -503 519 -526 545 -526 590 0 60 64 128 113 120 49 -7 79 -35 553
-501 352 -346 372 -363 420 -363 65 0 134 67 134 130 0 49 -45 105 -276 339
-450 457 -633 649 -668 699 -24 35 -27 48 -21 78 10 56 53 94 107 94 59 0 78
-16 464 -403 468 -469 566 -563 592 -572 40 -12 87 3 126 42 42 42 51 68 42
118 -8 40 -49 84 -498 537 -313 316 -374 385 -381 433 -9 67 45 125 116 125
49 0 25 22 662 -612 281 -279 530 -523 555 -542 58 -46 101 -48 157 -7 41 30
53 58 53 127 0 39 13 23 -259 299 -237 240 -274 282 -265 297 4 6 27 19 53 31
55 24 135 25 185 2 55 -26 691 -666 778 -783 42 -57 69 -72 125 -72 47 0 87
25 113 72 53 95 11 154 -435 607 -417 424 -465 459 -636 465 -153 5 -245 -23
-351 -107 l-37 -30 -193 191 c-257 254 -298 289 -377 317 -51 18 -145 24 -199
14z"/>
<path d="M1450 3243 c-25 -8 -58 -26 -75 -38 -70 -52 -549 -522 -689 -675
-184 -202 -251 -387 -271 -755 -12 -222 -13 -227 -43 -258 -15 -16 -105 -108
-199 -203 -191 -193 -193 -195 -154 -281 31 -68 110 -95 178 -60 16 9 129 115
251 237 l222 222 1 47 c1 25 2 64 4 86 1 22 5 90 9 150 9 149 15 194 36 302
36 182 71 233 395 563 289 296 401 397 451 406 99 18 161 -109 98 -201 -56
-83 -36 -188 41 -221 71 -29 103 -14 250 121 47 44 101 86 118 93 81 35 171
-31 161 -119 -1 -15 -15 -46 -30 -70 -68 -108 -25 -219 89 -233 41 -5 86 20
158 89 93 88 110 97 162 92 119 -11 140 -124 44 -227 -77 -82 -90 -106 -85
-161 4 -37 12 -57 33 -79 53 -55 101 -58 196 -9 32 16 71 29 86 29 36 0 90
-38 109 -78 30 -64 30 -64 -347 -450 -106 -108 -200 -210 -210 -227 -11 -16
-19 -44 -19 -62 0 -39 25 -95 51 -111 30 -19 97 -23 132 -8 18 7 99 79 180
160 117 116 151 145 162 136 24 -20 49 -84 53 -136 7 -89 -15 -122 -227 -336
-385 -390 -456 -431 -791 -453 -312 -21 -352 -26 -390 -50 -45 -28 -267 -251
-285 -285 -16 -31 -14 -86 3 -117 18 -32 82 -73 115 -73 29 0 97 41 145 88 16
15 55 53 89 85 67 64 49 59 263 72 113 7 136 9 220 19 179 22 375 103 492 203
114 97 553 545 581 593 36 62 58 151 58 237 0 115 -27 198 -97 299 l-43 61 41
49 c91 110 120 220 94 360 -19 99 -105 206 -211 261 l-59 31 -2 60 c-4 159
-74 278 -208 357 -52 31 -67 33 -193 34 l-101 1 -30 53 c-50 89 -158 172 -250
192 -53 11 -152 9 -216 -6 -55 -12 -59 -11 -68 7 -6 10 -43 51 -84 89 -55 54
-87 75 -131 91 -74 26 -200 30 -263 7z"/>
</g>
</svg>
