<svg width="100" height="100" viewBox="0 0 100 100" fill="none" xmlns="http://www.w3.org/2000/svg">
<path d="M74.183 74.81C74.367 73.74 74.345 72.734 74.12 71.788C75.523 71.749 76.93 71.684 78.336 71.588H78.351C80.432 71.412 82.157 70.555 83.526 69.016C84.941 67.431 85.576 65.588 85.432 63.484C85.321 61.824 84.747 60.379 83.712 59.145C84.498 59.037 85.03 58.927 85.308 58.82L85.339 58.805C87.533 57.987 89.212 56.572 90.374 54.56L90.39 54.545C91.668 52.367 91.755 50.008 90.654 47.463V47.48C89.627 44.892 87.401 43.322 83.975 42.77H84.006C83.506 42.674 82.953 42.603 82.349 42.552C82.495 42.323 82.629 42.079 82.751 41.823L82.767 41.792C83.617 39.918 83.714 38.002 83.062 36.044C83.056 36.032 83.051 36.016 83.045 35.998C82.336 34.046 81.086 32.604 79.296 31.675H79.312C77.751 30.788 75.567 30.473 72.758 30.73V30.714C70.718 30.88 62.264 32.733 47.394 36.276C47.436 36.204 47.477 36.131 47.518 36.059V36.075C48.59 34.258 49.411 32.26 49.981 30.078L49.966 30.094C50.645 27.659 50.406 25.061 49.253 22.302C47.913 19.027 45.404 17.621 41.722 18.087H41.707C38.161 18.436 35.869 20.786 34.828 25.137C34.173 27.911 33.522 29.749 32.875 30.653L32.861 30.669C32.144 31.483 30.971 32.351 29.343 33.272C29.333 33.276 29.322 33.281 29.312 33.287C26.983 34.557 25.17 36.489 23.874 39.082V39.066C23.481 39.831 23.135 40.615 22.835 41.421C21.544 40.584 20.418 40.206 19.458 40.291C16.254 40.164 13.691 42.06 11.773 45.977L11.788 45.961C10.437 48.629 9.55904 51.588 9.15404 54.84V54.856C8.76004 58.139 9.12204 61.434 10.238 64.741L10.253 64.757C11.503 68.655 14.643 70.686 19.673 70.846C19.94 70.855 20.188 70.819 20.417 70.739C24.682 78.243 33.225 80.386 46.043 77.169C52.501 79.271 59.159 80.65 66.016 81.305H66.031C67.972 81.491 69.739 80.949 71.33 79.678C72.925 78.395 73.875 76.775 74.183 74.81ZM46.82 72.904C46.414 72.771 46.006 72.762 45.596 72.873C32.999 76.171 25.32 73.444 22.557 64.692C22.39 64.129 22.051 63.706 21.534 63.422C21.015 63.14 20.472 63.083 19.908 63.25C19.344 63.416 18.92 63.756 18.637 64.273C18.354 64.792 18.298 65.334 18.466 65.899C18.519 66.091 18.576 66.282 18.637 66.473C16.431 66.152 14.98 65.115 14.283 63.359L14.299 63.375C13.392 60.695 13.092 58.024 13.4 55.363C13.738 52.625 14.472 50.13 15.6 47.882L15.616 47.865C16.632 45.789 17.912 44.688 19.459 44.564C20.009 44.67 20.742 45.104 21.659 45.867C21.604 46.181 21.559 46.496 21.519 46.811C21.446 47.396 21.591 47.921 21.953 48.391C22.318 48.856 22.793 49.125 23.378 49.198C23.963 49.271 24.491 49.127 24.959 48.763C25.423 48.399 25.692 47.924 25.765 47.338C26.043 45.072 26.683 42.965 27.686 41.016V41C28.573 39.225 29.808 37.897 31.389 37.019L31.42 37.003C33.648 35.746 35.228 34.536 36.161 33.378L36.177 33.362C37.177 32.234 38.112 29.821 38.982 26.126C39.51 23.912 40.6 22.646 42.251 22.33H42.267C43.742 22.14 44.759 22.677 45.319 23.942C46.065 25.726 46.241 27.405 45.845 28.978L45.829 28.993C45.367 30.779 44.701 32.416 43.83 33.905V33.921C42.76 35.754 42.104 37.376 41.863 38.786C41.85 38.828 41.84 38.869 41.832 38.91C41.818 38.99 41.807 39.074 41.801 39.158C41.753 39.84 41.774 41.116 41.863 42.987V43.017C41.918 44.487 41.463 46.33 40.5 48.548H40.485C39.505 50.717 37.63 52.479 34.86 53.831C34.332 54.092 33.97 54.498 33.776 55.055C33.581 55.611 33.612 56.153 33.869 56.683C34.128 57.212 34.537 57.575 35.093 57.768C35.646 57.962 36.188 57.932 36.72 57.674C40.562 55.804 43.129 53.331 44.42 50.253H44.405C45.707 47.279 46.285 44.795 46.14 42.8V42.77C46.108 42.082 46.086 41.488 46.077 40.988C62.016 37.176 71.034 35.177 73.129 34.991V34.975C74.907 34.819 76.296 34.978 77.297 35.455H77.314C78.112 35.883 78.675 36.533 79.002 37.408C79.008 37.423 79.013 37.438 79.019 37.453C79.295 38.319 79.248 39.166 78.879 39.994C78.874 40.005 78.868 40.016 78.863 40.026C78.494 40.786 77.916 41.312 77.128 41.607L77.144 41.59C75.863 42.054 74.571 42.478 73.27 42.861C73.231 42.871 73.19 42.882 73.147 42.892C72.944 42.963 72.38 43.133 71.458 43.404C71.411 43.411 71.364 43.422 71.318 43.435C66.847 44.739 60.882 45.953 53.422 47.076C52.836 47.162 52.366 47.44 52.013 47.912C51.663 48.391 51.534 48.923 51.625 49.509C51.71 50.089 51.989 50.554 52.462 50.905C52.937 51.252 53.464 51.382 54.042 51.292C61.712 50.148 67.853 48.908 72.464 47.573C77.309 46.786 80.908 46.589 83.263 46.984H83.295C84.994 47.256 86.136 47.98 86.719 49.153V49.168C87.228 50.343 87.212 51.433 86.672 52.439L86.688 52.422C86.038 53.541 85.103 54.332 83.883 54.793C82.323 55.287 72.572 55.959 54.631 56.808C54.605 56.806 54.579 56.806 54.554 56.808C53.978 56.832 53.492 57.059 53.097 57.49C52.698 57.922 52.506 58.428 52.524 59.009C52.545 59.593 52.766 60.089 53.19 60.496C53.612 60.898 54.113 61.095 54.693 61.084C54.719 61.084 54.745 61.084 54.771 61.084C69.191 60.857 76.783 60.724 77.547 60.682H77.577C78.495 60.617 79.301 60.874 79.994 61.456L80.01 61.471C80.709 62.086 81.091 62.852 81.156 63.766C81.219 64.679 80.945 65.479 80.335 66.167C79.725 66.854 78.955 67.235 78.027 67.313C76.575 67.416 75.124 67.486 73.673 67.53C72.645 67.549 71.585 67.559 70.497 67.56C70.395 67.551 70.292 67.551 70.187 67.56C64.938 67.553 58.912 67.187 52.105 66.46C51.521 66.398 51 66.553 50.54 66.925C50.079 67.293 49.815 67.77 49.75 68.35C49.688 68.935 49.843 69.455 50.215 69.914C50.583 70.375 51.059 70.64 51.641 70.705C58.314 71.419 64.259 71.795 69.474 71.836C69.483 71.851 69.494 71.866 69.505 71.883C69.958 72.532 70.113 73.277 69.97 74.113V74.13C69.824 75.017 69.391 75.749 68.668 76.328C67.991 76.872 67.242 77.116 66.422 77.058C59.686 76.409 53.152 75.023 46.82 72.904Z" fill="black"/>
</svg>
