<svg width="90" height="113" viewBox="0 0 90 113" fill="none" xmlns="http://www.w3.org/2000/svg">
<path d="M69.9721 68.696C70.1561 67.626 70.1341 66.62 69.9091 65.674C71.3121 65.635 72.7191 65.57 74.1251 65.474H74.1401C76.2211 65.298 77.9461 64.441 79.3151 62.902C80.7301 61.317 81.3651 59.474 81.2211 57.37C81.1101 55.71 80.5361 54.265 79.5011 53.031C80.2871 52.923 80.8191 52.813 81.0971 52.706L81.1281 52.691C83.3221 51.873 85.0011 50.458 86.1631 48.446L86.1791 48.431C87.4571 46.253 87.5441 43.894 86.4431 41.349V41.366C85.4161 38.778 83.1901 37.208 79.7641 36.656H79.7951C79.2951 36.56 78.7421 36.489 78.1381 36.438C78.2841 36.209 78.4181 35.965 78.5401 35.709L78.5561 35.678C79.4061 33.804 79.5031 31.888 78.8511 29.93C78.8451 29.918 78.8401 29.902 78.8341 29.884C78.1251 27.932 76.8751 26.49 75.0851 25.561H75.1011C73.5401 24.674 71.3561 24.359 68.5471 24.616V24.6C66.5071 24.766 58.0531 26.619 43.1831 30.162C43.2251 30.09 43.2661 30.017 43.3071 29.945V29.961C44.3791 28.144 45.2001 26.146 45.7701 23.964L45.7551 23.98C46.4341 21.545 46.1951 18.947 45.0421 16.188C43.7021 12.913 41.1931 11.507 37.5111 11.973H37.4961C33.9501 12.322 31.6581 14.672 30.6171 19.023C29.9621 21.797 29.3111 23.635 28.6641 24.539L28.6501 24.555C27.9331 25.369 26.7601 26.237 25.1321 27.158C25.1221 27.162 25.1111 27.167 25.1011 27.173C22.7721 28.443 20.9591 30.375 19.6631 32.968V32.952C19.2701 33.717 18.9241 34.501 18.6241 35.307C17.3331 34.47 16.2071 34.092 15.2471 34.177C12.0431 34.05 9.4801 35.946 7.5621 39.863L7.5771 39.847C6.2261 42.515 5.3481 45.474 4.9431 48.726V48.742C4.5491 52.025 4.9111 55.32 6.0271 58.627L6.0421 58.643C7.2921 62.541 10.4321 64.572 15.4621 64.732C15.7291 64.741 15.9771 64.705 16.2061 64.625C20.4711 72.129 29.0141 74.272 41.8321 71.055C48.2901 73.157 54.9481 74.536 61.8051 75.191H61.8201C63.7611 75.377 65.5281 74.835 67.1191 73.564C68.7141 72.281 69.6641 70.661 69.9721 68.696ZM42.6091 66.79C42.2031 66.657 41.7951 66.648 41.3851 66.759C28.7881 70.057 21.1091 67.33 18.3461 58.578C18.1791 58.015 17.8401 57.592 17.3231 57.308C16.8041 57.026 16.2611 56.969 15.6971 57.136C15.1331 57.302 14.7091 57.642 14.4261 58.159C14.1431 58.678 14.0871 59.22 14.2551 59.785C14.3081 59.977 14.3651 60.168 14.4261 60.359C12.2201 60.038 10.7691 59.001 10.0721 57.245L10.0881 57.261C9.1811 54.581 8.8811 51.91 9.1891 49.249C9.5271 46.511 10.2611 44.016 11.3891 41.768L11.4051 41.751C12.4211 39.675 13.7011 38.574 15.2481 38.45C15.7981 38.556 16.5311 38.99 17.4481 39.753C17.3931 40.067 17.3481 40.382 17.3081 40.697C17.2351 41.282 17.3801 41.807 17.7421 42.277C18.1071 42.742 18.5821 43.011 19.1671 43.084C19.7521 43.157 20.2801 43.013 20.7481 42.649C21.2121 42.285 21.4811 41.81 21.5541 41.224C21.8321 38.958 22.4721 36.851 23.4751 34.902V34.886C24.3621 33.111 25.5971 31.783 27.1781 30.905L27.2091 30.889C29.4371 29.632 31.0171 28.422 31.9501 27.264L31.9661 27.248C32.9661 26.12 33.9011 23.707 34.7711 20.012C35.2991 17.798 36.3891 16.532 38.0401 16.216H38.0561C39.5311 16.026 40.5481 16.563 41.1081 17.828C41.8541 19.612 42.0301 21.291 41.6341 22.864L41.6181 22.879C41.1561 24.665 40.4901 26.302 39.6191 27.791V27.807C38.5491 29.64 37.8931 31.262 37.6521 32.672C37.6391 32.714 37.6291 32.755 37.6211 32.796C37.6071 32.876 37.5961 32.96 37.5901 33.044C37.5421 33.726 37.5631 35.002 37.6521 36.873V36.903C37.7071 38.373 37.2521 40.216 36.2891 42.434H36.2741C35.2941 44.603 33.4191 46.365 30.6491 47.717C30.1211 47.978 29.7591 48.384 29.5651 48.941C29.3701 49.497 29.4011 50.039 29.6581 50.569C29.9171 51.098 30.3261 51.461 30.8821 51.654C31.4351 51.848 31.9771 51.818 32.5091 51.56C36.3511 49.69 38.9181 47.217 40.2091 44.139H40.1941C41.4961 41.165 42.0741 38.681 41.9291 36.686V36.656C41.8971 35.968 41.8751 35.374 41.8661 34.874C57.8051 31.062 66.8231 29.063 68.9181 28.877V28.861C70.6961 28.705 72.0851 28.864 73.0861 29.341H73.1031C73.9011 29.769 74.4641 30.419 74.7911 31.294C74.7971 31.309 74.8021 31.324 74.8081 31.339C75.0841 32.205 75.0371 33.052 74.6681 33.88C74.6631 33.891 74.6571 33.902 74.6521 33.912C74.2831 34.672 73.7051 35.198 72.9171 35.493L72.9331 35.476C71.6521 35.94 70.3601 36.364 69.0591 36.747C69.0201 36.757 68.9791 36.768 68.9361 36.778C68.7331 36.849 68.1691 37.019 67.2471 37.29C67.2001 37.297 67.1531 37.308 67.1071 37.321C62.6361 38.625 56.6711 39.839 49.2111 40.962C48.6251 41.048 48.1551 41.326 47.8021 41.798C47.4521 42.277 47.3231 42.809 47.4141 43.395C47.4991 43.975 47.7781 44.44 48.2511 44.791C48.7261 45.138 49.2531 45.268 49.8311 45.178C57.5011 44.034 63.6421 42.794 68.2531 41.459C73.0981 40.672 76.6971 40.475 79.0521 40.87H79.0841C80.7831 41.142 81.9251 41.866 82.5081 43.039V43.054C83.0171 44.229 83.0011 45.319 82.4611 46.325L82.4771 46.308C81.8271 47.427 80.8921 48.218 79.6721 48.679C78.1121 49.173 68.3611 49.845 50.4201 50.694C50.3941 50.692 50.3681 50.692 50.3431 50.694C49.7671 50.718 49.2811 50.945 48.8861 51.376C48.4871 51.808 48.2951 52.314 48.3131 52.895C48.3341 53.479 48.5551 53.975 48.9791 54.382C49.4011 54.784 49.9021 54.981 50.4821 54.97C50.5081 54.97 50.5341 54.97 50.5601 54.97C64.9801 54.743 72.5721 54.61 73.3361 54.568H73.3661C74.2841 54.503 75.0901 54.76 75.7831 55.342L75.7991 55.357C76.4981 55.972 76.8801 56.738 76.9451 57.652C77.0081 58.565 76.7341 59.365 76.1241 60.053C75.5141 60.74 74.7441 61.121 73.8161 61.199C72.3641 61.302 70.9131 61.372 69.4621 61.416C68.4341 61.435 67.3741 61.445 66.2861 61.446C66.1841 61.437 66.0811 61.437 65.9761 61.446C60.7271 61.439 54.7011 61.073 47.8941 60.346C47.3101 60.284 46.7891 60.439 46.3291 60.811C45.8681 61.179 45.6041 61.656 45.5391 62.236C45.4771 62.821 45.6321 63.341 46.0041 63.8C46.3721 64.261 46.8481 64.526 47.4301 64.591C54.1031 65.305 60.0481 65.681 65.2631 65.722C65.2721 65.737 65.2831 65.752 65.2941 65.769C65.7471 66.418 65.9021 67.163 65.7591 67.999V68.016C65.6131 68.903 65.1801 69.635 64.4571 70.214C63.7801 70.758 63.0311 71.002 62.2111 70.944C55.4751 70.295 48.9411 68.909 42.6091 66.79Z" fill="black"/>
</svg>
