<svg width="800" height="1000" viewBox="0 0 800 1000" fill="none" xmlns="http://www.w3.org/2000/svg">
<path d="M675.898 407.053V398.845C675.898 334.033 623.169 281.306 558.361 281.306H418.936V231.085C450.57 222.697 473.954 193.833 473.954 159.602C473.954 118.821 440.781 85.6489 400.002 85.6489C359.224 85.6489 326.046 118.821 326.046 159.602C326.046 193.833 349.432 222.698 381.063 231.085V281.306H241.639C176.828 281.306 124.1 334.034 124.1 398.845V407.053C78.2001 415.924 43.425 456.404 43.425 504.85C43.425 553.359 78.274 593.864 124.244 602.681C127.311 664.774 178.794 714.352 241.639 714.352H558.362C621.205 714.352 672.685 664.774 675.754 602.681C721.725 593.864 756.576 553.359 756.576 504.85C756.575 456.402 721.801 415.924 675.898 407.053ZM124.1 563.604C99.2971 555.591 81.3031 532.289 81.3031 504.849C81.3031 477.415 99.2971 454.114 124.1 446.099V563.604ZM363.922 159.602C363.922 139.709 380.105 123.524 400 123.524C419.893 123.524 436.078 139.71 436.078 159.602C436.078 179.494 419.893 195.68 400 195.68C380.105 195.68 363.922 179.493 363.922 159.602ZM638.026 596.813C638.025 640.74 602.286 676.474 558.361 676.474H241.639C197.711 676.474 161.975 640.74 161.975 596.813V398.845C161.975 354.92 197.711 319.184 241.639 319.184H558.362C602.287 319.184 638.026 354.92 638.026 398.845V596.813ZM675.898 563.604V446.1C700.7 454.115 718.697 477.416 718.697 504.85C718.697 532.288 700.7 555.592 675.898 563.604Z" fill="black"/>
<path d="M538.119 400.611C507.313 400.611 482.254 425.674 482.254 456.476C482.254 487.282 507.315 512.342 538.119 512.342C568.923 512.342 593.986 487.28 593.986 456.476C593.986 425.675 568.923 400.611 538.119 400.611ZM538.119 474.466C528.199 474.466 520.129 466.401 520.129 456.478C520.129 446.558 528.199 438.485 538.119 438.485C548.04 438.485 556.111 446.558 556.111 456.478C556.111 466.399 548.04 474.466 538.119 474.466Z" fill="black"/>
<path d="M261.881 400.611C231.074 400.611 206.015 425.674 206.015 456.476C206.015 487.282 231.075 512.342 261.881 512.342C292.684 512.342 317.747 487.28 317.747 456.476C317.747 425.675 292.684 400.611 261.881 400.611ZM261.881 474.466C251.961 474.466 243.89 466.401 243.89 456.478C243.89 446.558 251.961 438.485 261.881 438.485C271.8 438.485 279.872 446.558 279.872 456.478C279.872 466.399 271.8 474.466 261.881 474.466Z" fill="black"/>
<path d="M451.604 571.221H348.395C337.935 571.221 329.456 579.7 329.456 590.155C329.456 600.616 337.935 609.093 348.395 609.093H451.606C462.063 609.093 470.543 600.614 470.543 590.155C470.542 579.698 462.063 571.221 451.604 571.221Z" fill="black"/>
</svg>
