<svg width="100" height="100" viewBox="0 0 100 100" fill="none" xmlns="http://www.w3.org/2000/svg">
<path d="M83.384 50.3413V49.3622C83.384 41.6305 77.0993 35.3406 69.3749 35.3406H52.7569V29.3495C56.5273 28.3489 59.3145 24.9056 59.3145 20.8221C59.3145 15.9572 55.3606 12 50.5002 12C45.6399 12 41.6854 15.9572 41.6854 20.8221C41.6854 24.9056 44.4728 28.349 48.2429 29.3495V35.3406H31.625C23.9002 35.3406 17.6156 41.6306 17.6156 49.3622V50.3413C12.1448 51.3996 8 56.2286 8 62.0078C8 67.7946 12.1536 72.6266 17.6328 73.6784C17.9983 81.0857 24.1345 87 31.625 87H69.375C76.8652 87 83.0011 81.0857 83.3669 73.6784C88.8461 72.6266 93 67.7946 93 62.0078C92.9999 56.2283 88.8552 51.3996 83.384 50.3413ZM17.6156 69.0168C14.6593 68.0609 12.5147 65.2811 12.5147 62.0077C12.5147 58.735 14.6593 55.9554 17.6156 54.9992V69.0168ZM46.1998 20.8221C46.1998 18.449 48.1287 16.5182 50.4999 16.5182C52.871 16.5182 54.8001 18.4491 54.8001 20.8221C54.8001 23.1951 52.871 25.126 50.4999 25.126C48.1287 25.126 46.1998 23.195 46.1998 20.8221ZM78.8701 72.9784C78.87 78.2186 74.6103 82.4814 69.3749 82.4814H31.625C26.3892 82.4814 22.1299 78.2186 22.1299 72.9784V49.3622C22.1299 44.1222 26.3892 39.8591 31.625 39.8591H69.375C74.6104 39.8591 78.8701 44.1222 78.8701 49.3622V72.9784ZM83.384 69.0168V54.9994C86.3402 55.9555 88.4852 58.7351 88.4852 62.0078C88.4852 65.281 86.3402 68.061 83.384 69.0168Z" fill="black"/>
<path d="M66.9999 50C63.1399 50 60 52.9161 60 56.4999C60 60.0843 63.1401 63 66.9999 63C70.8596 63 74 60.084 74 56.4999C74 52.9162 70.8596 50 66.9999 50ZM66.9999 58.5931C65.7569 58.5931 64.7457 57.6547 64.7457 56.5002C64.7457 55.346 65.7569 54.4067 66.9999 54.4067C68.243 54.4067 69.2543 55.346 69.2543 56.5002C69.2543 57.6545 68.243 58.5931 66.9999 58.5931Z" fill="black"/>
<path d="M34 50C30.6913 50 28 52.9161 28 56.4999C28 60.0843 30.6914 63 34 63C37.3082 63 40 60.084 40 56.4999C40 52.9162 37.3082 50 34 50ZM34 58.5931C32.9346 58.5931 32.0678 57.6547 32.0678 56.5002C32.0678 55.346 32.9346 54.4067 34 54.4067C35.0653 54.4067 35.9322 55.346 35.9322 56.5002C35.9322 57.6545 35.0653 58.5931 34 58.5931Z" fill="black"/>
<path d="M56.718 70H44.282C43.0217 70 42 70.8955 42 71.9998C42 73.1047 43.0217 74 44.282 74H56.7182C57.9782 74 59 73.1045 59 71.9998C58.9999 70.8953 57.9782 70 56.718 70Z" fill="black"/>
</svg>
