<svg width="100" height="100" viewBox="0 0 100 100" fill="none" xmlns="http://www.w3.org/2000/svg">
<path d="M61.6496 51.701C67.8166 47.9327 71.9545 41.1628 71.9545 33.4286C71.9545 21.613 62.3299 12 50.5 12C38.6701 12 29.0455 21.613 29.0455 33.4286C29.0455 41.1628 33.1834 47.9327 39.3504 51.701C28.5989 56.1039 21 66.6586 21 78.9643V84.3214C21 85.802 22.2008 87 23.6818 87H77.3182C78.7992 87 80 85.802 80 84.3214V78.9643C80 66.6586 72.4011 56.1039 61.6496 51.701ZM34.4091 33.4286C34.4091 24.5663 41.627 17.3571 50.5 17.3571C59.373 17.3571 66.5909 24.5663 66.5909 33.4286C66.5909 42.2909 59.373 49.5 50.5 49.5C41.627 49.5 34.4091 42.2909 34.4091 33.4286ZM74.6364 81.6429H26.3636V78.9643C26.3636 65.6708 37.1917 54.8571 50.5 54.8571C63.8083 54.8571 74.6364 65.6708 74.6364 78.9643V81.6429Z" fill="black"/>
</svg>
