<svg width="800" height="1000" viewBox="0 0 800 1000" fill="none" xmlns="http://www.w3.org/2000/svg">
<path d="M503.937 420.543C561.426 385.371 600 322.186 600 250C600 139.722 510.278 50 400 50C289.722 50 200 139.722 200 250C200 322.186 238.574 385.371 296.063 420.543C195.837 461.636 125 560.147 125 675V725C125 738.818 136.194 750 150 750H650C663.806 750 675 738.818 675 725V675C675 560.147 604.163 461.636 503.937 420.543ZM250 250C250 167.285 317.285 100 400 100C482.715 100 550 167.285 550 250C550 332.715 482.715 400 400 400C317.285 400 250 332.715 250 250ZM625 700H175V675C175 550.928 275.94 450 400 450C524.06 450 625 550.928 625 675V700Z" fill="black"/>
</svg>
