<svg width="100" height="100" viewBox="0 0 100 100" fill="none" xmlns="http://www.w3.org/2000/svg">
<path d="M67.9242 16.2349C66.5937 16.7064 65.5607 18.1561 65.5432 19.5534C65.5432 19.9377 65.6658 20.9158 65.8058 21.7367C65.9459 22.5576 66.0684 23.3261 66.0684 23.4484C66.0684 23.5881 65.7008 23.4833 65.0005 23.134C57.0522 19.1168 47.3708 18.6801 39.0198 21.9463C31.7368 24.7758 25.6793 30.3475 22.2304 37.3514C20.1295 41.5782 19.1842 45.4382 19.0266 50.2064C18.9215 53.787 19.1141 55.9178 19.8494 58.9395C21.9153 67.393 27.43 74.624 35.0632 78.9381C46.3203 85.2958 60.6237 84.1081 70.6378 75.9514C72.4061 74.5017 75.2947 71.4452 76.6078 69.5938C77.9383 67.7249 79.9692 63.7601 80.687 61.6467C81.3522 59.6556 82 56.7387 82 55.6558C82 53.6822 80.862 52.3023 78.8837 51.8657C77.5882 51.5862 75.6974 52.5119 75.0847 53.7171C74.9271 53.9966 74.6645 54.9921 74.4719 55.9528C73.2639 61.9611 70.0601 67.0437 65.2106 70.6941C61.0964 73.7856 56.7896 75.2877 51.5375 75.4799C47.0206 75.6196 43.8343 74.9559 39.8952 72.9997C32.9098 69.5414 28.2179 63.306 26.7473 55.5336C26.3446 53.4551 26.3446 49.4554 26.7298 47.307C28.3229 38.4343 34.4854 31.2382 42.8539 28.4786C45.6375 27.5529 47.5283 27.256 50.6621 27.256C53.8134 27.256 55.9143 27.5878 58.4003 28.4786C59.8009 28.9851 62.637 30.2776 62.532 30.3824C62.497 30.4173 61.289 30.6444 59.8534 30.9064C58.0151 31.2382 56.9997 31.5002 56.492 31.7971C55.5641 32.3386 54.8463 33.5263 54.7238 34.6791C54.5487 36.4431 56.0193 38.2771 57.8226 38.5915C58.4703 38.6963 71.3206 36.6353 72.6862 36.1986C74.0167 35.7794 75.1547 34.2249 75.1722 32.8276C75.1722 32.0591 73.0013 19.1692 72.7212 18.3133C72.6161 18.0164 72.2835 17.5099 71.9684 17.1955C70.8654 16.0777 69.3773 15.7109 67.9242 16.2349Z" fill="black"/>
</svg>
