<svg width="90" height="113" viewBox="0 0 90 113" fill="none" xmlns="http://www.w3.org/2000/svg">
<path d="M57.6149 75.265C59.6179 73.531 60.6069 71.449 60.5819 69.022C60.5819 68.958 60.5819 68.894 60.5819 68.83C63.1169 68.483 65.4479 67.546 67.5779 66.017L67.5979 65.997C70.8489 63.593 72.4419 60.696 72.3759 57.307C72.3729 56.496 72.2839 55.705 72.1059 54.936C72.4019 54.744 72.7169 54.538 73.0489 54.321C73.0879 54.286 73.1269 54.255 73.1649 54.224C75.3109 52.723 76.3849 50.321 76.3829 47.016C76.4589 45.173 75.8109 43.297 74.4379 41.39C75.0929 41.012 75.7219 40.595 76.3259 40.138C76.6389 39.918 76.9989 39.635 77.4049 39.29C77.5529 39.162 77.6879 39.02 77.8099 38.865C77.8379 38.827 77.8709 38.782 77.9069 38.73C81.0949 35.813 82.6559 32.914 82.5889 30.041C82.7559 27.066 81.2209 24.182 77.9839 21.387L77.9639 21.369C72.6659 16.625 65.9409 15.687 57.7879 18.556C57.6069 18.359 57.4209 18.16 57.2289 17.958V17.978C53.0829 13.653 48.5219 11.513 43.5469 11.56C40.0339 11.465 36.0379 13.237 31.5609 16.879L31.5409 16.899C28.8879 18.948 26.6659 22.12 24.8739 26.418C23.7929 25.841 22.7079 25.578 21.6169 25.628C17.6319 25.471 14.4459 27.827 12.0579 32.701L12.0779 32.681C10.3989 36.026 9.30689 39.707 8.80289 43.723V43.741C8.31489 47.824 8.76389 51.935 10.1519 56.074L10.1719 56.094C11.6159 60.604 15.0919 63.101 20.5969 63.59C21.1599 64.695 21.8929 65.852 22.7939 67.059L22.8129 67.079C25.9149 71.504 31.1299 73.104 38.4599 71.877C38.9969 72.488 39.6139 73.105 40.3109 73.728V73.748C43.3699 76.492 46.5489 77.821 49.8499 77.737H49.8879C53.2669 77.671 55.8299 76.861 57.5769 75.308C57.5869 75.289 57.6009 75.277 57.6149 75.265ZM50.5429 54.608C50.5809 54.63 50.6189 54.656 50.6579 54.685C50.9159 54.838 51.1729 54.994 51.4289 55.147C53.3489 56.303 55.3719 57.119 57.4979 57.594C59.0479 57.943 60.6409 58.116 62.2769 58.114C63.9409 58.113 65.5339 57.888 67.0559 57.44C66.9459 59.075 66.0779 60.495 64.4539 61.699L64.4339 61.719C62.6149 63.018 60.5729 63.667 58.3059 63.665C55.6179 63.664 53.1119 62.956 50.7899 61.546L50.8099 61.564C48.4489 60.095 47.2349 58.201 47.1679 55.879C47.1669 54.948 47.4619 54.255 48.0539 53.799H48.0929C48.3519 53.633 48.6409 53.503 48.9599 53.413C49.4429 53.824 49.9709 54.223 50.5429 54.608ZM57.9419 43.239C58.0489 43.271 58.1519 43.296 58.2509 43.316C58.5329 43.367 58.8159 43.418 59.0989 43.469L58.9639 43.431C61.0679 43.932 63.1889 44.112 65.3229 43.97H65.3419C66.6199 43.896 67.8989 43.711 69.1779 43.411C70.3439 44.668 70.9729 45.869 71.0669 47.014C71.0649 48.27 70.7379 49.226 70.0839 49.886L70.0249 49.944C70.0049 49.956 69.9869 49.969 69.9669 49.983C69.6099 50.213 69.2759 50.439 68.9649 50.658H68.9459C68.5929 50.908 68.2649 51.134 67.9629 51.332C67.9319 51.348 67.8999 51.367 67.8669 51.39C67.7159 51.449 67.5679 51.526 67.4239 51.621C67.3199 51.653 67.2169 51.69 67.1149 51.736C65.6169 52.445 64.0049 52.799 62.2779 52.796C61.0379 52.794 59.8299 52.659 58.6549 52.393C57.0829 52.045 55.5859 51.448 54.1649 50.6C53.9089 50.446 53.6519 50.291 53.3939 50.137C52.7099 49.658 52.1319 49.144 51.6599 48.596V48.616C50.6979 47.471 50.2169 46.168 50.2149 44.703C50.2159 43.714 50.5499 42.982 51.2179 42.507V42.487C52.0779 42.009 53.1969 41.772 54.5709 41.775C55.5379 42.354 56.6619 42.841 57.9419 43.239ZM74.4769 25.395L74.4959 25.415C76.2589 26.933 77.1839 28.449 77.2709 29.961C77.1279 31.546 76.1069 33.196 74.2069 34.914C74.1199 34.998 74.0369 35.089 73.9569 35.184C73.8889 35.267 73.8239 35.344 73.7649 35.416C73.5889 35.558 73.4289 35.679 73.2839 35.782C73.2519 35.809 73.2199 35.835 73.1869 35.859C72.1839 36.63 71.0729 37.247 69.8529 37.71C69.4499 37.827 69.0389 37.943 68.6199 38.056C67.4189 38.389 66.2179 38.587 65.0159 38.654H64.9969C63.3859 38.768 61.7859 38.639 60.1979 38.268C60.1529 38.255 60.1069 38.243 60.0629 38.23C59.8309 38.187 59.5989 38.143 59.3689 38.095C59.1389 38.021 58.9129 37.945 58.6949 37.863C59.5809 37.375 60.3509 36.701 61.0069 35.84C61.0179 35.82 61.0299 35.801 61.0469 35.783C61.9009 34.645 62.4539 33.276 62.7029 31.679C63.2319 31.899 64.0029 32.233 65.0159 32.68C65.6939 32.981 66.3739 33 67.0589 32.739C67.7389 32.472 68.2269 32.004 68.5229 31.331C68.8249 30.655 68.8439 29.975 68.5819 29.288C68.3139 28.609 67.8459 28.121 67.1749 27.825C64.8259 26.782 63.4059 26.229 62.9159 26.167C62.8329 26.157 62.7489 26.151 62.6659 26.147C62.5659 26.138 62.4699 26.132 62.3769 26.127C62.3629 26.081 62.3509 26.035 62.3379 25.993C62.3319 25.963 62.3249 25.931 62.3179 25.897C62.0339 24.979 61.6289 24.054 61.1039 23.121C66.4289 21.637 70.8859 22.394 74.4769 25.395ZM27.0719 63.896L27.0519 63.876C25.0379 61.158 24.3449 58.975 24.9699 57.324C25.3149 56.674 25.3799 55.999 25.1629 55.301C24.9489 54.598 24.5189 54.072 23.8719 53.722C23.2239 53.377 22.5489 53.313 21.8489 53.53C21.1469 53.745 20.6199 54.176 20.2689 54.82C19.6709 55.782 19.3239 56.822 19.2289 57.942C17.2459 57.353 15.8969 56.16 15.1819 54.357L15.2009 54.377C14.0729 51.021 13.7009 47.688 14.0829 44.377V44.357C14.5059 40.98 15.4189 37.884 16.8199 35.068L16.8389 35.05C18.1029 32.467 19.6949 31.098 21.6179 30.945C22.0879 31.008 22.5689 31.226 23.0629 31.6C22.6729 32.952 22.3129 34.377 21.9839 35.878C21.8299 36.593 21.9519 37.262 22.3499 37.882C22.7439 38.506 23.2959 38.897 24.0069 39.058C24.7229 39.213 25.3909 39.091 26.0109 38.692C26.6329 38.297 27.0249 37.747 27.1859 37.034C28.8899 29.251 31.4529 23.92 34.8749 21.04L34.8949 21.02C38.1689 18.354 41.0539 16.972 43.5469 16.877C47.1029 16.931 50.3779 18.524 53.3749 21.657C53.9009 22.203 54.3779 22.75 54.8009 23.295C54.8139 23.313 54.8259 23.333 54.8389 23.352C54.8929 23.427 54.9499 23.498 55.0129 23.564C56.0699 24.911 56.8079 26.229 57.2289 27.514L57.2089 27.418C57.3349 27.863 57.4319 28.306 57.4979 28.747C57.4959 28.782 57.4959 28.813 57.4979 28.844C57.5199 29.085 57.5339 29.335 57.5369 29.595C57.5359 30.831 57.2659 31.853 56.7269 32.658L56.7649 32.62C56.3009 33.23 55.6459 33.519 54.7999 33.487C54.4129 33.492 54.0399 33.446 53.6819 33.352L53.6239 33.332H53.6039C52.8099 33.062 52.0649 32.573 51.3689 31.869H51.3499C49.6379 30.174 48.3919 28.959 47.6109 28.225C47.5029 27.972 47.3479 27.736 47.1489 27.513C46.6929 27.007 46.1279 26.718 45.4529 26.646C44.7749 26.571 44.1589 26.73 43.6029 27.128C43.0519 27.531 42.7049 28.065 42.5619 28.727C42.2839 29.677 42.4319 30.967 43.0049 32.601L43.0249 32.64C43.3079 33.412 43.4679 33.977 43.5069 34.335C43.4559 35.991 42.7769 37.706 41.4639 39.481L41.4439 39.499C40.2069 41.123 38.9279 42.069 37.6089 42.332C36.8859 42.429 36.3019 42.77 35.8549 43.353C35.4039 43.937 35.2229 44.592 35.3159 45.319C35.4129 46.042 35.7529 46.626 36.3369 47.073C36.9209 47.523 37.5759 47.704 38.3039 47.612C40.6479 47.392 42.8629 46.063 44.9519 43.624C44.9129 43.972 44.8929 44.331 44.8929 44.702C44.8929 46.23 45.1679 47.662 45.7219 49C45.5319 49.108 45.3459 49.225 45.1619 49.347C42.9529 50.692 41.8489 52.868 41.8479 55.879C41.8439 56.173 41.8499 56.462 41.8679 56.746C40.1769 56.975 38.7379 57.835 37.5519 59.329L37.5329 59.348C36.2739 60.863 35.6449 62.776 35.6439 65.091C35.6349 65.669 35.6929 66.247 35.8169 66.825C31.8769 67.134 28.9599 66.157 27.0719 63.896ZM49.7719 72.414C47.7419 72.37 45.7699 71.489 43.8549 69.773V69.793C43.0089 69.021 42.3349 68.262 41.8319 67.52L41.7939 67.461C41.7609 67.412 41.7289 67.367 41.6969 67.326C41.2319 66.575 40.9879 65.83 40.9649 65.091C40.9639 64.128 41.2009 63.323 41.6789 62.683L41.6979 62.663C42.0219 62.252 42.4209 62.033 42.8929 62.008C43.0129 62.006 43.1099 62.006 43.1819 62.008C43.2249 62.025 43.2699 62.044 43.3169 62.065C43.4679 62.142 43.6229 62.206 43.7799 62.258C44.7869 63.679 46.1939 64.951 47.9999 66.074L48.0199 66.092C50.2449 67.443 52.5959 68.323 55.0729 68.733C55.1339 68.824 55.2049 68.913 55.2849 69.003L55.2659 69.023C55.2409 69.868 54.8809 70.599 54.1859 71.219C53.1659 71.974 51.7079 72.372 49.8119 72.415L49.7719 72.414Z" fill="black"/>
</svg>
