<svg width="100" height="100" viewBox="0 0 100 100" fill="none" xmlns="http://www.w3.org/2000/svg">
<path d="M62.0026 80.7086C64.0056 78.9746 64.9946 76.8926 64.9696 74.4656C64.9696 74.4016 64.9696 74.3376 64.9696 74.2736C67.5046 73.9266 69.8356 72.9896 71.9656 71.4606L71.9856 71.4406C75.2366 69.0366 76.8296 66.1396 76.7636 62.7506C76.7606 61.9396 76.6716 61.1486 76.4936 60.3796C76.7896 60.1876 77.1046 59.9816 77.4366 59.7646C77.4756 59.7296 77.5146 59.6986 77.5526 59.6676C79.6986 58.1666 80.7726 55.7646 80.7706 52.4596C80.8466 50.6166 80.1986 48.7406 78.8256 46.8336C79.4806 46.4556 80.1096 46.0386 80.7136 45.5816C81.0266 45.3616 81.3866 45.0786 81.7926 44.7336C81.9406 44.6056 82.0756 44.4636 82.1976 44.3086C82.2256 44.2706 82.2586 44.2256 82.2946 44.1736C85.4826 41.2566 87.0436 38.3576 86.9766 35.4846C87.1436 32.5096 85.6086 29.6256 82.3716 26.8306L82.3516 26.8126C77.0536 22.0686 70.3286 21.1306 62.1756 23.9996C61.9946 23.8026 61.8086 23.6036 61.6166 23.4016V23.4216C57.4706 19.0966 52.9096 16.9566 47.9346 17.0036C44.4216 16.9086 40.4256 18.6806 35.9486 22.3226L35.9286 22.3426C33.2756 24.3916 31.0536 27.5636 29.2616 31.8616C28.1806 31.2846 27.0956 31.0216 26.0046 31.0716C22.0196 30.9146 18.8336 33.2706 16.4456 38.1446L16.4656 38.1246C14.7866 41.4696 13.6946 45.1506 13.1906 49.1666V49.1846C12.7026 53.2676 13.1516 57.3786 14.5396 61.5176L14.5596 61.5376C16.0036 66.0476 19.4796 68.5446 24.9846 69.0336C25.5476 70.1386 26.2806 71.2956 27.1816 72.5026L27.2006 72.5226C30.3026 76.9476 35.5176 78.5476 42.8476 77.3206C43.3846 77.9316 44.0016 78.5486 44.6986 79.1716V79.1916C47.7576 81.9356 50.9366 83.2646 54.2376 83.1806H54.2756C57.6546 83.1146 60.2176 82.3046 61.9646 80.7516C61.9746 80.7326 61.9886 80.7206 62.0026 80.7086ZM54.9306 60.0516C54.9686 60.0736 55.0066 60.0996 55.0456 60.1286C55.3036 60.2816 55.5606 60.4376 55.8166 60.5906C57.7366 61.7466 59.7596 62.5626 61.8856 63.0376C63.4356 63.3866 65.0286 63.5596 66.6646 63.5576C68.3286 63.5566 69.9216 63.3316 71.4436 62.8836C71.3336 64.5186 70.4656 65.9386 68.8416 67.1426L68.8216 67.1626C67.0026 68.4616 64.9606 69.1106 62.6936 69.1086C60.0056 69.1076 57.4996 68.3996 55.1776 66.9896L55.1976 67.0076C52.8366 65.5386 51.6226 63.6446 51.5556 61.3226C51.5546 60.3916 51.8496 59.6986 52.4416 59.2426H52.4806C52.7396 59.0766 53.0286 58.9466 53.3476 58.8566C53.8306 59.2676 54.3586 59.6666 54.9306 60.0516ZM62.3296 48.6826C62.4366 48.7146 62.5396 48.7396 62.6386 48.7596C62.9206 48.8106 63.2036 48.8616 63.4866 48.9126L63.3516 48.8746C65.4556 49.3756 67.5766 49.5556 69.7106 49.4136H69.7296C71.0076 49.3396 72.2866 49.1546 73.5656 48.8546C74.7316 50.1116 75.3606 51.3126 75.4546 52.4576C75.4526 53.7136 75.1256 54.6696 74.4716 55.3296L74.4126 55.3876C74.3926 55.3996 74.3746 55.4126 74.3546 55.4266C73.9976 55.6566 73.6636 55.8826 73.3526 56.1016H73.3336C72.9806 56.3516 72.6526 56.5776 72.3506 56.7756C72.3196 56.7916 72.2876 56.8106 72.2546 56.8336C72.1036 56.8926 71.9556 56.9696 71.8116 57.0646C71.7076 57.0966 71.6046 57.1336 71.5026 57.1796C70.0046 57.8886 68.3926 58.2426 66.6656 58.2396C65.4256 58.2376 64.2176 58.1026 63.0426 57.8366C61.4706 57.4886 59.9736 56.8916 58.5526 56.0436C58.2966 55.8896 58.0396 55.7346 57.7816 55.5806C57.0976 55.1016 56.5196 54.5876 56.0476 54.0396V54.0596C55.0856 52.9146 54.6046 51.6116 54.6026 50.1466C54.6036 49.1576 54.9376 48.4256 55.6056 47.9506V47.9306C56.4656 47.4526 57.5846 47.2156 58.9586 47.2186C59.9256 47.7976 61.0496 48.2846 62.3296 48.6826ZM78.8646 30.8386L78.8836 30.8586C80.6466 32.3766 81.5716 33.8926 81.6586 35.4046C81.5156 36.9896 80.4946 38.6396 78.5946 40.3576C78.5076 40.4416 78.4246 40.5326 78.3446 40.6276C78.2766 40.7106 78.2116 40.7876 78.1526 40.8596C77.9766 41.0016 77.8166 41.1226 77.6716 41.2256C77.6396 41.2526 77.6076 41.2786 77.5746 41.3026C76.5716 42.0736 75.4606 42.6906 74.2406 43.1536C73.8376 43.2706 73.4266 43.3866 73.0076 43.4996C71.8066 43.8326 70.6056 44.0306 69.4036 44.0976H69.3846C67.7736 44.2116 66.1736 44.0826 64.5856 43.7116C64.5406 43.6986 64.4946 43.6866 64.4506 43.6736C64.2186 43.6306 63.9866 43.5866 63.7566 43.5386C63.5266 43.4646 63.3006 43.3886 63.0826 43.3066C63.9686 42.8186 64.7386 42.1446 65.3946 41.2836C65.4056 41.2636 65.4176 41.2446 65.4346 41.2266C66.2886 40.0886 66.8416 38.7196 67.0906 37.1226C67.6196 37.3426 68.3906 37.6766 69.4036 38.1236C70.0816 38.4246 70.7616 38.4436 71.4466 38.1826C72.1266 37.9156 72.6146 37.4476 72.9106 36.7746C73.2126 36.0986 73.2316 35.4186 72.9696 34.7316C72.7016 34.0526 72.2336 33.5646 71.5626 33.2686C69.2136 32.2256 67.7936 31.6726 67.3036 31.6106C67.2206 31.6006 67.1366 31.5946 67.0536 31.5906C66.9536 31.5816 66.8576 31.5756 66.7646 31.5706C66.7506 31.5246 66.7386 31.4786 66.7256 31.4366C66.7196 31.4066 66.7126 31.3746 66.7056 31.3406C66.4216 30.4226 66.0166 29.4976 65.4916 28.5646C70.8166 27.0806 75.2736 27.8376 78.8646 30.8386ZM31.4596 69.3396L31.4396 69.3196C29.4256 66.6016 28.7326 64.4186 29.3576 62.7676C29.7026 62.1176 29.7676 61.4426 29.5506 60.7446C29.3366 60.0416 28.9066 59.5156 28.2596 59.1656C27.6116 58.8206 26.9366 58.7566 26.2366 58.9736C25.5346 59.1886 25.0076 59.6196 24.6566 60.2636C24.0586 61.2256 23.7116 62.2656 23.6166 63.3856C21.6336 62.7966 20.2846 61.6036 19.5696 59.8006L19.5886 59.8206C18.4606 56.4646 18.0886 53.1316 18.4706 49.8206V49.8006C18.8936 46.4236 19.8066 43.3276 21.2076 40.5116L21.2266 40.4936C22.4906 37.9106 24.0826 36.5416 26.0056 36.3886C26.4756 36.4516 26.9566 36.6696 27.4506 37.0436C27.0606 38.3956 26.7006 39.8206 26.3716 41.3216C26.2176 42.0366 26.3396 42.7056 26.7376 43.3256C27.1316 43.9496 27.6836 44.3406 28.3946 44.5016C29.1106 44.6566 29.7786 44.5346 30.3986 44.1356C31.0206 43.7406 31.4126 43.1906 31.5736 42.4776C33.2776 34.6946 35.8406 29.3636 39.2626 26.4836L39.2826 26.4636C42.5566 23.7976 45.4416 22.4156 47.9346 22.3206C51.4906 22.3746 54.7656 23.9676 57.7626 27.1006C58.2886 27.6466 58.7656 28.1936 59.1886 28.7386C59.2016 28.7566 59.2136 28.7766 59.2266 28.7956C59.2806 28.8706 59.3376 28.9416 59.4006 29.0076C60.4576 30.3546 61.1956 31.6726 61.6166 32.9576L61.5966 32.8616C61.7226 33.3066 61.8196 33.7496 61.8856 34.1906C61.8836 34.2256 61.8836 34.2566 61.8856 34.2876C61.9076 34.5286 61.9216 34.7786 61.9246 35.0386C61.9236 36.2746 61.6536 37.2966 61.1146 38.1016L61.1526 38.0636C60.6886 38.6736 60.0336 38.9626 59.1876 38.9306C58.8006 38.9356 58.4276 38.8896 58.0696 38.7956L58.0116 38.7756H57.9916C57.1976 38.5056 56.4526 38.0166 55.7566 37.3126H55.7376C54.0256 35.6176 52.7796 34.4026 51.9986 33.6686C51.8906 33.4156 51.7356 33.1796 51.5366 32.9566C51.0806 32.4506 50.5156 32.1616 49.8406 32.0896C49.1626 32.0146 48.5466 32.1736 47.9906 32.5716C47.4396 32.9746 47.0926 33.5086 46.9496 34.1706C46.6716 35.1206 46.8196 36.4106 47.3926 38.0446L47.4126 38.0836C47.6956 38.8556 47.8556 39.4206 47.8946 39.7786C47.8436 41.4346 47.1646 43.1496 45.8516 44.9246L45.8316 44.9426C44.5946 46.5666 43.3156 47.5126 41.9966 47.7756C41.2736 47.8726 40.6896 48.2136 40.2426 48.7966C39.7916 49.3806 39.6106 50.0356 39.7036 50.7626C39.8006 51.4856 40.1406 52.0696 40.7246 52.5166C41.3086 52.9666 41.9636 53.1476 42.6916 53.0556C45.0356 52.8356 47.2506 51.5066 49.3396 49.0676C49.3006 49.4156 49.2806 49.7746 49.2806 50.1456C49.2806 51.6736 49.5556 53.1056 50.1096 54.4436C49.9196 54.5516 49.7336 54.6686 49.5496 54.7906C47.3406 56.1356 46.2366 58.3116 46.2356 61.3226C46.2316 61.6166 46.2376 61.9056 46.2556 62.1896C44.5646 62.4186 43.1256 63.2786 41.9396 64.7726L41.9206 64.7916C40.6616 66.3066 40.0326 68.2196 40.0316 70.5346C40.0226 71.1126 40.0806 71.6906 40.2046 72.2686C36.2646 72.5776 33.3476 71.6006 31.4596 69.3396ZM54.1596 77.8576C52.1296 77.8136 50.1576 76.9326 48.2426 75.2166V75.2366C47.3966 74.4646 46.7226 73.7056 46.2196 72.9636L46.1816 72.9046C46.1486 72.8556 46.1166 72.8106 46.0846 72.7696C45.6196 72.0186 45.3756 71.2736 45.3526 70.5346C45.3516 69.5716 45.5886 68.7666 46.0666 68.1266L46.0856 68.1066C46.4096 67.6956 46.8086 67.4766 47.2806 67.4516C47.4006 67.4496 47.4976 67.4496 47.5696 67.4516C47.6126 67.4686 47.6576 67.4876 47.7046 67.5086C47.8556 67.5856 48.0106 67.6496 48.1676 67.7016C49.1746 69.1226 50.5816 70.3946 52.3876 71.5176L52.4076 71.5356C54.6326 72.8866 56.9836 73.7666 59.4606 74.1766C59.5216 74.2676 59.5926 74.3566 59.6726 74.4466L59.6536 74.4666C59.6286 75.3116 59.2686 76.0426 58.5736 76.6626C57.5536 77.4176 56.0956 77.8156 54.1996 77.8586L54.1596 77.8576Z" fill="black"/>
</svg>
