<svg width="90" height="113" viewBox="0 0 90 113" fill="none" xmlns="http://www.w3.org/2000/svg">
<path d="M5.99103 53.2041C7.31303 57.3321 10.637 59.4811 15.966 59.6501C16.134 59.6561 16.298 59.6451 16.456 59.6171C16.913 60.3101 17.454 60.9771 18.081 61.6201C20.421 64.0411 23.171 65.2441 26.333 65.2281C26.653 65.2351 27.163 65.1801 27.858 65.0651C28.21 65.0081 28.434 64.9751 28.532 64.9661C28.595 64.9661 28.653 64.9661 28.712 64.9661C29.276 66.0181 30.069 67.0721 31.091 68.1321L31.107 68.1481C33.566 70.7111 36.24 71.9681 39.13 71.9211C41.653 71.9101 43.862 71.2061 45.757 69.8051C47.937 68.2021 48.987 66.3381 48.908 64.2111C48.908 64.1751 48.908 64.1361 48.908 64.0961C51.668 64.0041 54.183 63.2661 56.455 61.8821L56.472 61.8641C59.509 59.9591 60.981 57.6351 60.885 54.8921C60.903 53.9451 60.75 53.0331 60.425 52.1511C63.123 52.6571 65.879 53.0931 68.694 53.4641C74.51 54.2271 78.459 54.4451 80.539 54.1201C80.55 54.1141 80.561 54.1081 80.572 54.1031C83.27 53.6851 85.343 52.1811 86.79 49.5921L86.773 49.6081C88.299 47.0581 88.267 44.1771 86.674 40.9621C85.387 37.7991 81.22 35.9561 74.173 35.4341C74.091 35.4271 74.008 35.4221 73.927 35.4171C78.851 33.8981 81.848 31.9881 82.917 29.6921L82.934 29.6751C84.654 26.4761 84.888 23.9001 83.64 21.9491C82.623 20.0601 81.098 18.7601 79.063 18.0441H79.095C77.362 17.3981 75.389 17.1141 73.172 17.1911H73.139C71.126 17.2091 67.101 18.2541 61.066 20.3231C56.34 21.9411 52.419 23.5161 49.302 25.0491C48.525 23.6541 47.441 22.2341 46.054 20.7841C42.525 17.0991 38.642 15.2801 34.406 15.3201C31.41 15.2411 28.004 16.7461 24.185 19.8321C21.923 21.5881 20.033 24.2941 18.507 27.9521C17.587 27.4731 16.663 27.2541 15.736 27.2961C12.349 27.1661 9.62503 29.1721 7.56603 33.3171C6.16603 36.1601 5.25203 39.2891 4.82603 42.7021C4.38803 46.1911 4.77603 49.6911 5.99103 53.2041ZM39.179 61.9141H39.197C40.73 62.7171 42.338 63.3011 44.019 63.6711C44.111 63.8591 44.23 64.0411 44.38 64.2121C44.302 64.9271 43.864 65.5771 43.067 66.1651C41.942 66.9941 40.631 67.4031 39.129 67.3951C37.432 67.3481 35.846 66.5551 34.371 65.0151L34.356 65.0001C32.993 63.5871 32.276 62.2091 32.206 60.8641C32.206 60.0581 32.407 59.3751 32.813 58.8131L32.829 58.7971C33.106 58.4631 33.444 58.2891 33.847 58.2731C34.035 58.2721 34.16 58.2721 34.224 58.2731C34.244 58.2771 34.259 58.2831 34.275 58.2901H34.209C34.465 58.4161 34.723 58.4931 34.98 58.5191C35.927 59.8031 37.327 60.9341 39.179 61.9141ZM11.634 35.3221C12.726 33.1181 14.093 31.9531 15.736 31.8261C16.136 31.8801 16.547 32.0661 16.966 32.3841C16.634 33.5341 16.327 34.7491 16.046 36.0271C15.915 36.6351 16.019 37.2041 16.359 37.7331C16.695 38.2631 17.166 38.5971 17.769 38.7341C18.378 38.8661 18.949 38.7621 19.476 38.4231C20.005 38.0871 20.339 37.6161 20.478 37.0111C21.931 30.3761 24.119 25.8211 27.039 23.3461C29.828 21.0941 32.283 19.9291 34.406 19.8501C37.431 19.8961 40.22 21.2521 42.773 23.9191V23.9021C44.392 25.5951 45.48 27.2311 46.037 28.8071C46.043 28.8241 46.049 28.8401 46.055 28.8561C46.225 29.4641 46.315 30.0711 46.317 30.6771C46.317 31.7191 46.092 32.5711 45.645 33.2371C45.252 33.7451 44.698 33.9861 43.987 33.9581C42.915 33.9311 41.936 33.4821 41.051 32.6141C39.61 31.1861 38.555 30.1581 37.885 29.5291C37.795 29.2971 37.656 29.0771 37.475 28.8721C37.086 28.4411 36.604 28.1961 36.032 28.1341C35.454 28.0701 34.928 28.2071 34.456 28.5441C33.987 28.8881 33.692 29.3421 33.571 29.9061C33.331 30.7051 33.452 31.8101 33.93 33.2191C33.944 33.2341 33.953 33.2511 33.963 33.2691C34.205 33.9271 34.342 34.4081 34.373 34.7121C34.332 36.1221 33.742 37.5821 32.602 39.0931C31.553 40.4751 30.459 41.2831 29.321 41.5211C28.71 41.6111 28.216 41.9061 27.844 42.4071C27.463 42.9121 27.317 43.4761 27.401 44.0971C27.491 44.7081 27.786 45.2011 28.288 45.5741C28.794 45.9531 29.356 46.1011 29.977 46.0161C32.207 45.7731 34.286 44.3721 36.211 41.8161C37.551 40.0451 38.393 38.3051 38.736 36.5991C40.332 37.8801 42.082 38.5091 43.986 38.4861C46.242 38.4641 48.003 37.6221 49.269 35.9601L49.287 35.9271C50.325 34.5811 50.846 32.8301 50.846 30.6771C50.847 30.2521 50.825 29.8251 50.781 29.3981C53.825 27.8561 57.746 26.2651 62.544 24.6241C67.937 22.7691 71.513 21.8011 73.273 21.7191H73.305C74.883 21.6671 76.288 21.8641 77.522 22.3101H77.555C78.493 22.6441 79.2 23.2471 79.67 24.1151C79.957 24.9571 79.71 26.0991 78.933 27.5441L78.95 27.5291C77.781 29.2861 74.511 30.7841 69.139 32.0231L69.156 32.0071C62.814 33.4441 56.837 35.0341 51.223 36.7811C50.664 36.9571 50.238 37.3021 49.944 37.8141C49.644 38.3261 49.557 38.8681 49.681 39.4381C49.815 40.0101 50.126 40.4631 50.618 40.8011C51.099 41.1421 51.63 41.2731 52.209 41.1941C60.877 39.9741 68.091 39.5651 73.848 39.9641C78.624 40.3171 81.544 41.3181 82.61 42.9661C83.423 44.6101 83.501 46.0781 82.839 47.3801L82.822 47.3961C82.126 48.6581 81.135 49.4071 79.853 49.6441L79.885 49.6261C78.029 49.8701 74.495 49.6511 69.287 48.9711C63.909 48.2641 58.747 47.3141 53.801 46.1171C53.341 45.9661 52.86 45.8511 52.356 45.7721C52.315 45.7651 52.278 45.7601 52.243 45.7551C52.041 45.7341 51.827 45.7111 51.602 45.6901C50.982 45.6251 50.428 45.7891 49.945 46.1821C49.462 46.5781 49.187 47.0881 49.126 47.7081C49.061 48.3271 49.225 48.8801 49.617 49.3631C50.015 49.8481 50.524 50.1211 51.143 50.1841C51.314 50.2021 51.478 50.2191 51.635 50.2341C51.673 50.2411 51.711 50.2461 51.75 50.2511C51.932 50.2861 52.112 50.3291 52.291 50.3821C52.341 50.4041 52.395 50.4261 52.455 50.4471C53.265 50.7281 54.035 51.1941 54.768 51.8421L54.785 51.8591C55.79 52.7831 56.314 53.7951 56.36 54.8941C56.265 56.0871 55.506 57.1311 54.079 58.0281L54.097 58.0111C52.372 59.0661 50.448 59.5901 48.322 59.5861C45.791 59.5911 43.449 59.0331 41.301 57.9121H41.317C39.251 56.8191 38.163 55.4401 38.053 53.7781C38.035 53.1521 38.289 52.6981 38.807 52.4151L38.791 52.4331C39.551 52.0611 40.541 51.8751 41.76 51.8751C42.182 51.9261 43.069 52.2101 44.418 52.7281C44.434 52.7341 44.449 52.7411 44.467 52.7441C45.778 53.2831 46.571 53.6381 46.846 53.8101C47.321 54.2231 47.867 54.4091 48.487 54.3681C49.107 54.3211 49.621 54.0581 50.029 53.5821C50.443 53.1081 50.628 52.5611 50.588 51.9411C50.538 51.3221 50.275 50.8081 49.8 50.3991C49.424 50.0051 48.198 49.3821 46.124 48.5291C46.106 48.5241 46.091 48.5191 46.075 48.5121C43.907 47.6811 42.47 47.2941 41.761 47.3471C39.656 47.3451 37.954 47.7061 36.659 48.4301L36.641 48.4471C34.586 49.5591 33.549 51.3261 33.524 53.7451C31.85 53.8181 30.444 54.5581 29.309 55.9601L29.291 55.9781C28.285 57.2161 27.75 58.7311 27.684 60.5211C27.522 60.5421 27.336 60.5701 27.125 60.6031H27.109C26.755 60.6631 26.498 60.6961 26.338 60.7021C24.426 60.6871 22.758 59.9431 21.334 58.4721C19.959 57.0641 19.221 55.4671 19.121 53.6821C19.09 53.0561 18.844 52.5331 18.381 52.1071C17.92 51.6831 17.377 51.4871 16.758 51.5161C16.133 51.5451 15.608 51.7911 15.184 52.2531C14.76 52.7151 14.563 53.2561 14.592 53.8771C14.608 54.2561 14.641 54.6281 14.69 54.9941C12.458 54.6301 10.981 53.5411 10.262 51.7291C9.28703 48.8961 8.97703 46.0761 9.32403 43.2641C9.68303 40.3751 10.454 37.7281 11.634 35.3221Z" fill="black"/>
</svg>
