<svg width="100" height="100" viewBox="0 0 100 100" fill="none" xmlns="http://www.w3.org/2000/svg">
<path d="M9.33917 59.887C10.6612 64.015 13.9852 66.164 19.3142 66.333C19.4822 66.339 19.6462 66.328 19.8042 66.3C20.2612 66.993 20.8022 67.66 21.4292 68.303C23.7692 70.724 26.5192 71.927 29.6812 71.911C30.0012 71.918 30.5112 71.863 31.2062 71.748C31.5582 71.691 31.7822 71.658 31.8802 71.649C31.9432 71.649 32.0012 71.649 32.0602 71.649C32.6242 72.701 33.4172 73.755 34.4392 74.815L34.4552 74.831C36.9142 77.394 39.5882 78.651 42.4782 78.604C45.0012 78.593 47.2102 77.889 49.1052 76.488C51.2852 74.885 52.3352 73.021 52.2562 70.894C52.2562 70.858 52.2562 70.819 52.2562 70.779C55.0162 70.687 57.5312 69.949 59.8032 68.565L59.8202 68.547C62.8572 66.642 64.3292 64.318 64.2332 61.575C64.2512 60.628 64.0982 59.716 63.7732 58.834C66.4712 59.34 69.2272 59.776 72.0422 60.147C77.8582 60.91 81.8072 61.128 83.8872 60.803C83.8982 60.797 83.9092 60.791 83.9202 60.786C86.6182 60.368 88.6912 58.864 90.1382 56.275L90.1212 56.291C91.6472 53.741 91.6152 50.86 90.0222 47.645C88.7352 44.482 84.5682 42.639 77.5212 42.117C77.4392 42.11 77.3562 42.105 77.2752 42.1C82.1992 40.581 85.1962 38.671 86.2652 36.375L86.2822 36.358C88.0022 33.159 88.2362 30.583 86.9882 28.632C85.9712 26.743 84.4462 25.443 82.4112 24.727H82.4432C80.7102 24.081 78.7372 23.797 76.5202 23.874H76.4872C74.4742 23.892 70.4492 24.937 64.4142 27.006C59.6882 28.624 55.7672 30.199 52.6502 31.732C51.8732 30.337 50.7892 28.917 49.4022 27.467C45.8732 23.782 41.9902 21.963 37.7542 22.003C34.7582 21.924 31.3522 23.429 27.5332 26.515C25.2712 28.271 23.3812 30.977 21.8552 34.635C20.9352 34.156 20.0112 33.937 19.0842 33.979C15.6972 33.849 12.9732 35.855 10.9142 40C9.51417 42.843 8.60017 45.972 8.17417 49.385C7.73617 52.874 8.12417 56.374 9.33917 59.887ZM42.5272 68.597H42.5452C44.0782 69.4 45.6862 69.984 47.3672 70.354C47.4592 70.542 47.5782 70.724 47.7282 70.895C47.6502 71.61 47.2122 72.26 46.4152 72.848C45.2902 73.677 43.9792 74.086 42.4772 74.078C40.7802 74.031 39.1942 73.238 37.7192 71.698L37.7042 71.683C36.3412 70.27 35.6242 68.892 35.5542 67.547C35.5542 66.741 35.7552 66.058 36.1612 65.496L36.1772 65.48C36.4542 65.146 36.7922 64.972 37.1952 64.956C37.3832 64.955 37.5082 64.955 37.5722 64.956C37.5922 64.96 37.6072 64.966 37.6232 64.973H37.5572C37.8132 65.099 38.0712 65.176 38.3282 65.202C39.2752 66.486 40.6752 67.617 42.5272 68.597ZM14.9822 42.005C16.0742 39.801 17.4412 38.636 19.0842 38.509C19.4842 38.563 19.8952 38.749 20.3142 39.067C19.9822 40.217 19.6752 41.432 19.3942 42.71C19.2632 43.318 19.3672 43.887 19.7072 44.416C20.0432 44.946 20.5142 45.28 21.1172 45.417C21.7262 45.549 22.2972 45.445 22.8242 45.106C23.3532 44.77 23.6872 44.299 23.8262 43.694C25.2792 37.059 27.4672 32.504 30.3872 30.029C33.1762 27.777 35.6312 26.612 37.7542 26.533C40.7792 26.579 43.5682 27.935 46.1212 30.602V30.585C47.7402 32.278 48.8282 33.914 49.3852 35.49C49.3912 35.507 49.3972 35.523 49.4032 35.539C49.5732 36.147 49.6632 36.754 49.6652 37.36C49.6652 38.402 49.4402 39.254 48.9932 39.92C48.6002 40.428 48.0462 40.669 47.3352 40.641C46.2632 40.614 45.2842 40.165 44.3992 39.297C42.9582 37.869 41.9032 36.841 41.2332 36.212C41.1432 35.98 41.0042 35.76 40.8232 35.555C40.4342 35.124 39.9522 34.879 39.3802 34.817C38.8022 34.753 38.2762 34.89 37.8042 35.227C37.3352 35.571 37.0402 36.025 36.9192 36.589C36.6792 37.388 36.8002 38.493 37.2782 39.902C37.2922 39.917 37.3012 39.934 37.3112 39.952C37.5532 40.61 37.6902 41.091 37.7212 41.395C37.6802 42.805 37.0902 44.265 35.9502 45.776C34.9012 47.158 33.8072 47.966 32.6692 48.204C32.0582 48.294 31.5642 48.589 31.1922 49.09C30.8112 49.595 30.6652 50.159 30.7492 50.78C30.8392 51.391 31.1342 51.884 31.6362 52.257C32.1422 52.636 32.7042 52.784 33.3252 52.699C35.5552 52.456 37.6342 51.055 39.5592 48.499C40.8992 46.728 41.7412 44.988 42.0842 43.282C43.6802 44.563 45.4302 45.192 47.3342 45.169C49.5902 45.147 51.3512 44.305 52.6172 42.643L52.6352 42.61C53.6732 41.264 54.1942 39.513 54.1942 37.36C54.1952 36.935 54.1732 36.508 54.1292 36.081C57.1732 34.539 61.0942 32.948 65.8922 31.307C71.2852 29.452 74.8612 28.484 76.6212 28.402H76.6532C78.2312 28.35 79.6362 28.547 80.8702 28.993H80.9032C81.8412 29.327 82.5482 29.93 83.0182 30.798C83.3052 31.64 83.0582 32.782 82.2812 34.227L82.2982 34.212C81.1292 35.969 77.8592 37.467 72.4872 38.706L72.5042 38.69C66.1622 40.127 60.1852 41.717 54.5712 43.464C54.0122 43.64 53.5862 43.985 53.2922 44.497C52.9922 45.009 52.9052 45.551 53.0292 46.121C53.1632 46.693 53.4742 47.146 53.9662 47.484C54.4472 47.825 54.9782 47.956 55.5572 47.877C64.2252 46.657 71.4392 46.248 77.1962 46.647C81.9722 47 84.8922 48.001 85.9582 49.649C86.7712 51.293 86.8492 52.761 86.1872 54.063L86.1702 54.079C85.4742 55.341 84.4832 56.09 83.2012 56.327L83.2332 56.309C81.3772 56.553 77.8432 56.334 72.6352 55.654C67.2572 54.947 62.0952 53.997 57.1492 52.8C56.6892 52.649 56.2082 52.534 55.7042 52.455C55.6632 52.448 55.6262 52.443 55.5912 52.438C55.3892 52.417 55.1752 52.394 54.9502 52.373C54.3302 52.308 53.7762 52.472 53.2932 52.865C52.8102 53.261 52.5352 53.771 52.4742 54.391C52.4092 55.01 52.5732 55.563 52.9652 56.046C53.3632 56.531 53.8722 56.804 54.4912 56.867C54.6622 56.885 54.8262 56.902 54.9832 56.917C55.0212 56.924 55.0592 56.929 55.0982 56.934C55.2802 56.969 55.4602 57.012 55.6392 57.065C55.6892 57.087 55.7432 57.109 55.8032 57.13C56.6132 57.411 57.3832 57.877 58.1162 58.525L58.1332 58.542C59.1382 59.466 59.6622 60.478 59.7082 61.577C59.6132 62.77 58.8542 63.814 57.4272 64.711L57.4452 64.694C55.7202 65.749 53.7962 66.273 51.6702 66.269C49.1392 66.274 46.7972 65.716 44.6492 64.595H44.6652C42.5992 63.502 41.5112 62.123 41.4012 60.461C41.3832 59.835 41.6372 59.381 42.1552 59.098L42.1392 59.116C42.8992 58.744 43.8892 58.558 45.1082 58.558C45.5302 58.609 46.4172 58.893 47.7662 59.411C47.7822 59.417 47.7972 59.424 47.8152 59.427C49.1262 59.966 49.9192 60.321 50.1942 60.493C50.6692 60.906 51.2152 61.092 51.8352 61.051C52.4552 61.004 52.9692 60.741 53.3772 60.265C53.7912 59.791 53.9762 59.244 53.9362 58.624C53.8862 58.005 53.6232 57.491 53.1482 57.082C52.7722 56.688 51.5462 56.065 49.4722 55.212C49.4542 55.207 49.4392 55.202 49.4232 55.195C47.2552 54.364 45.8182 53.977 45.1092 54.03C43.0042 54.028 41.3022 54.389 40.0072 55.113L39.9892 55.13C37.9342 56.242 36.8972 58.009 36.8722 60.428C35.1982 60.501 33.7922 61.241 32.6572 62.643L32.6392 62.661C31.6332 63.899 31.0982 65.414 31.0322 67.204C30.8702 67.225 30.6842 67.253 30.4732 67.286H30.4572C30.1032 67.346 29.8462 67.379 29.6862 67.385C27.7742 67.37 26.1062 66.626 24.6822 65.155C23.3072 63.747 22.5692 62.15 22.4692 60.365C22.4382 59.739 22.1922 59.216 21.7292 58.79C21.2682 58.366 20.7252 58.17 20.1062 58.199C19.4812 58.228 18.9562 58.474 18.5322 58.936C18.1082 59.398 17.9112 59.939 17.9402 60.56C17.9562 60.939 17.9892 61.311 18.0382 61.677C15.8062 61.313 14.3292 60.224 13.6102 58.412C12.6352 55.579 12.3252 52.759 12.6722 49.947C13.0312 47.058 13.8022 44.411 14.9822 42.005Z" fill="black"/>
</svg>
